PathFileType	4	(X/Y/Z)	Patient4_TMGait_0pt6_02_right_38.trc.trc
DataRate	CameraRate	NumFrames	NumMarkers	Units	OrigDataRate	OrigDataStartFrame	OrigNumFrames
79.096045197740	79.096045197740	6	33	mm	79.096045197740	124	       141
Frame#	Time	Sacral			L.Shoulder			Chest			R.Shoulder			Neck			R.ASIS			L.ASIS			R.Thigh.Superior			R.Thigh.Lateral			R.Thigh.Inferior			R.Patella			L.Thigh.Superior			L.Thigh.Lateral			L.Thigh.Inferior			L.Patella			L.Shank.Superior			L.Shank.Lateral			L.Shank.Inferior			R.Shank.Superior			R.Shank.Lateral			R.Shank.Inferior			R.Heel			R.Midfoot.Superior			R.Midfoot.Lateral			R.Toe			L.Heel			L.Midfoot.Lateral			L.Midfoot.Superior			L.Toe			L.Elbow			L.Wrist			R.Elbow			R.Wrist			
		X1	Y1	Z1	X2	Y2	Z2	X3	Y3	Z3	X4	Y4	Z4	X5	Y5	Z5	X6	Y6	Z6	X7	Y7	Z7	X8	Y8	Z8	X9	Y9	Z9	X10	Y10	Z10	X11	Y11	Z11	X12	Y12	Z12	X13	Y13	Z13	X14	Y14	Z14	X15	Y15	Z15	X16	Y16	Z16	X17	Y17	Z17	X18	Y18	Z18	X19	Y19	Z19	X20	Y20	Z20	X21	Y21	Z21	X22	Y22	Z22	X23	Y23	Z23	X24	Y24	Z24	X25	Y25	Z25	X26	Y26	Z26	X27	Y27	Z27	X28	Y28	Z28	X29	Y29	Z29	X30	Y30	Z30	X31	Y31	Z31	X32	Y32	Z32	X33	Y33	Z33	

124	47.315071428571	810.587480311965	1000.528548731714	485.764384467160	1023.132662722655	1431.044685510916	331.916823473536	1110.391399080543	1347.632019885263	494.832616033715	1016.645290190132	1421.601003843811	663.297169850892	1018.095465071740	1482.746165393096	482.667979478003	1028.524456808038	931.907429984469	616.273119359707	1029.667071359930	946.352788832820	342.970975082526	1094.555091961404	752.803284934782	595.737487042343	1035.299316890324	633.404654536095	663.311779454265	1124.780255599681	593.074061730780	586.497144509017	1148.504826166324	511.264363644041	600.383160673997	1028.726805039080	721.041465279883	372.320770974690	913.011963743920	628.415788253854	306.161715997601	968.066005005583	533.314696446737	373.198964240114	950.611321166981	463.407294655585	382.592905351409	910.110024838302	399.901162557918	373.418382388996	800.814090578869	307.056854664486	317.157127584251	820.488587497225	188.255852410975	390.505356220802	1136.019412196965	422.080570021368	611.740754745202	1081.810712430485	307.553348117934	671.668468703001	1154.482732316054	223.422465101928	621.847623657093	1064.513280542554	41.562166828777	590.849832469832	1228.121050592780	109.774662695093	631.496443183922	1147.962292019404	38.381522141259	665.449841045484	1351.847441613719	68.396587733542	656.858765790537	665.563826151179	46.601453541023	421.354974686908	745.070878495501	39.209569754808	347.368751455384	829.352111033125	96.300283823097	379.074874874144	956.455823801289	38.942963934155	359.170575142192	1027.676323254015	1100.162570426918	174.097676064164	1260.565254103943	1095.557157798551	272.280816008068	907.545439322681	1090.508072075249	772.421254876629	979.527701138449	838.253657133082	753.764966266034	
125	47.327714285714	811.923574279822	999.191683462800	488.631489290596	1022.263776658328	1430.521869459823	335.155728418894	1110.645941676838	1347.286679789633	497.699379605241	1017.105875448099	1420.603753393071	666.621641299619	1017.656087658043	1482.023810194676	485.999167180784	1030.468419489996	930.664511064577	618.642506356989	1031.114930759048	945.952718699134	344.971585529844	1096.851982121088	751.384954301526	597.992107579887	1035.368127540071	631.714928268454	663.414500560369	1125.854952790312	591.985669972697	587.759642443657	1147.607016633755	509.043469911776	600.376460960109	1030.765931391935	720.227546888418	373.868212275429	915.117123971071	627.112510848498	308.298669397236	971.152603419616	531.840309850829	374.797947361603	953.894681810387	460.753530553649	383.545283214274	910.945094977103	397.937574177226	374.620412964430	799.110819208456	308.145039245903	318.336302538570	816.111437097237	188.478043714162	390.753389953765	1134.432922285715	419.352705078827	611.318318066186	1078.321577273775	305.488274804853	670.735682544749	1149.146931948106	220.397881927162	620.351042601621	1055.021969606099	41.565479024501	589.064327776166	1220.052462042303	105.931180846498	628.875731829499	1138.218849268861	37.326082793854	663.977162089106	1343.061520174434	62.002067060847	654.957881019847	658.306157802562	49.621842676990	421.118878906337	737.730268238794	40.578250968074	347.280546013693	822.892718282995	96.655545257355	378.761485899714	948.912775602010	38.829300057683	359.138288421929	1025.685943377703	1099.349251765883	177.112363606280	1259.450811161509	1094.114414776028	273.401638133722	912.386562808995	1087.948430094073	775.799389359000	989.545185318267	837.284169664469	757.113415613184	
126	47.340357142857	813.107253691732	998.198565969618	491.488667894704	1021.565428996463	1430.283885697878	338.550377357568	1111.009129827045	1347.100299984607	500.679184827359	1017.774819913563	1419.799234740339	670.095818093550	1017.462909328466	1481.543513541771	489.534010072023	1032.339926856794	929.768574681577	621.042257556909	1032.448573043101	945.930957522144	346.788272191555	1099.312795748085	750.525550683561	600.056433224590	1036.025377253103	630.685051115482	663.608866753398	1127.335104437521	591.437883508577	588.925732769892	1147.346370195868	507.331295272155	600.423690079268	1033.336486166638	719.785206667863	375.427197869382	918.287706472579	625.711571450220	310.510207096137	975.833386071718	530.449890486015	376.408698952104	958.923883029920	458.000298191395	384.335645751820	913.197985751895	395.949756494990	375.770400849468	798.551280299401	309.725391790830	319.623950608523	812.566743481502	189.145967966236	390.957985360357	1133.303698608441	417.192359765225	610.999312857091	1075.439885543873	304.131383431099	670.366685196103	1143.997962320522	217.896618270345	619.148985160768	1045.445043473192	41.790112605330	587.920590121418	1211.841608094742	102.818799046547	626.732483930913	1128.523006375017	36.661022546214	663.042050430014	1334.245151689343	56.633204816483	653.377303838853	651.425528818325	53.934182577123	420.947603908400	730.581287691649	42.719140797766	347.234013268614	816.917697987945	97.239782223298	378.394149377712	941.319446919691	38.658668613936	359.123821414151	1022.996527927805	1098.733555716217	180.375341240436	1257.840857619293	1091.565195622043	274.242550668435	917.422650096187	1085.616467575408	779.268268971707	999.591097443602	836.559662557476	761.016310623510	
127	47.353000000000	814.117708777313	997.568236628425	494.332773398611	1021.058416203467	1430.372135752821	342.052314668289	1111.460379048102	1347.080929434005	503.721207261947	1018.648621143474	1419.202227586265	673.658659485450	1017.513806137023	1481.324179244145	493.225352928902	1034.101066154974	929.258048665960	623.438189101100	1033.547989103890	946.230360466287	348.499995658435	1101.742475079145	750.155219962574	601.884619384842	1037.167652669330	630.288824457840	664.001082944344	1128.954047126693	591.308093078652	589.970723746282	1147.494970227942	506.094464433744	600.604280386449	1036.407200798131	719.759145867323	377.018036463418	922.567671731394	624.253059127283	312.746798899710	982.147851786907	529.213861100724	377.986901194698	965.715144926483	455.246485023067	384.923692097290	916.948355344232	394.023952176700	376.818083964690	799.250976171638	311.890474656664	321.005059996567	809.996393321291	190.380492790178	391.116180824252	1132.458341539154	415.583962273707	610.867731181887	1073.068682987095	303.407325157370	670.572833153167	1139.093077406581	215.944235024953	618.307616513601	1036.162580106699	42.112181963876	587.379641832830	1203.745513671869	100.519492359064	625.171547772636	1119.225151197174	36.310143757098	662.615830729625	1325.678241326986	52.526288977688	652.214874299500	645.100180553429	59.792155801806	420.892660847987	723.724960087137	45.850121828372	347.260603721447	811.537499852257	98.132354421546	377.997120337190	933.667581467015	38.396113199067	359.128824349208	1019.647341075198	1098.378487946150	183.896341974908	1255.716739262810	1087.885067278522	274.831324036828	922.624908230137	1083.555723900261	782.822872196523	1009.612250172163	836.112132967275	765.445971698391	
128	47.365642857143	814.950122924345	997.286780626500	497.179814287233	1020.738070448087	1430.796625513804	345.604285577050	1111.970282436140	1347.222785347329	506.766661132528	1019.705064161485	1418.808198929165	677.241315260623	1017.779523280718	1481.361038503850	497.011739865268	1035.726313165455	929.137152811980	625.800912975209	1034.335667424075	946.783773022265	350.165999287331	1103.955919638986	750.161844353023	603.460852558915	1038.628383969553	630.433372607816	664.655105125864	1130.450781393030	591.449274388529	590.888117619349	1147.787804400337	505.246679813653	600.961374753144	1039.932864431200	720.177050858967	378.665978591993	927.958418871322	622.794929244975	314.955794193675	990.058504015167	528.214657854236	379.489275327765	974.204885487286	452.613986185001	385.291493554090	922.225679182341	392.258941408704	377.724506935847	801.298215836952	314.712473893258	322.460500764545	808.527840458916	192.290942146528	391.235569936026	1131.675766519368	414.448706685105	610.964326726351	1070.998920915576	303.183616716900	671.269015630484	1134.383446545079	214.498653415500	617.832028976067	1027.366601807971	42.440672685144	587.340181400067	1195.889937991910	99.003031497827	624.202706450395	1110.481825338253	36.186311853911	662.613043518176	1317.484804391495	49.703389894525	651.493428972207	639.538801080030	67.402463726514	421.008212167555	717.292841101721	50.178177181001	347.395121963924	806.863392490586	99.423754817685	377.605937822786	925.970464134799	38.001222056439	359.151733510603	1015.694314649056	1098.323503758271	187.668710096218	1253.040614392072	1083.067446147085	275.201449773769	927.965983191857	1081.789854960802	786.464009158158	1019.583648085485	835.968722489022	770.346504016184	
129	47.378285714286	815.610220040202	997.311194573817	500.060619610902	1020.569244117608	1431.531416070949	349.144538811600	1112.504504263996	1347.507480016438	509.752965162466	1020.906937117577	1418.594124390673	680.773569457257	1018.207902873783	1481.626609152591	500.822426736622	1037.201957100057	929.376595206981	628.104235046483	1034.775991969694	947.515642515365	351.826625316549	1105.798129493985	750.396871854166	604.809930724997	1040.178914104990	630.972308512570	665.589181118050	1131.586931312171	591.707587165064	591.692913475129	1147.952029020882	504.668609041181	601.491121006782	1043.854836405946	721.049595385823	380.395072877589	934.411562177539	621.411911437712	317.087556984984	999.446437900324	527.544889533776	380.880879242489	984.253727814160	450.242475749682	385.450726911897	929.003389759397	390.760771531222	378.471152445088	804.746151436183	318.234602443035	323.969909276304	808.264143801899	194.963216143247	391.335667343006	1130.721920747248	413.669042009400	611.284702390157	1068.970691191106	303.296974915300	672.306223910877	1129.757536437871	213.470459503031	617.675998784586	1019.097012990413	42.716779985621	587.667365014042	1188.299182860519	98.157281705346	623.758206821901	1102.298806630293	36.205460463719	662.917666998054	1309.671242893645	48.023073867917	651.174416957180	634.970865815660	76.893032182034	421.345246342374	711.447084081622	55.873323516966	347.672679388310	803.003847328904	101.210716914595	377.264839674664	918.274835217954	37.434719218050	359.188140444047	1011.208369319442	1098.572514811949	191.666467134480	1249.754200023464	1077.120914648295	275.388389754745	933.420493454006	1080.322438150912	790.196462596452	1029.508835770709	836.152402983880	775.632133254953	
